<!-- <?xml version="1.0" encoding="UTF-8" standalone="no"?>
<svg
   version="1.1"
   id="Layer_1"
   x="0px"
   y="0px"
   viewBox="0 0 306 138"
   enable-background="new 0 0 306 138"
   xml:space="preserve"
   sodipodi:docname="body-hor.svg"
   inkscape:export-filename="body-hor.png"
   inkscape:export-xdpi="96"
   inkscape:export-ydpi="96"
   inkscape:version="1.4 (86a8ad7, 2024-10-11)"
   xmlns:inkscape="http://www.inkscape.org/namespaces/inkscape"
   xmlns:sodipodi="http://sodipodi.sourceforge.net/DTD/sodipodi-0.dtd"
   xmlns="http://www.w3.org/2000/svg"
   xmlns:svg="http://www.w3.org/2000/svg"><defs
   id="defs2" /><sodipodi:namedview
   id="namedview2"
   pagecolor="#ffffff"
   bordercolor="#000000"
   borderopacity="0.25"
   inkscape:showpageshadow="2"
   inkscape:pageopacity="0.0"
   inkscape:pagecheckerboard="0"
   inkscape:deskcolor="#d1d1d1"
   inkscape:zoom="2.9346405"
   inkscape:cx="195.08352"
   inkscape:cy="73.433185"
   inkscape:window-width="1920"
   inkscape:window-height="1129"
   inkscape:window-x="-8"
   inkscape:window-y="-8"
   inkscape:window-maximized="1"
   inkscape:current-layer="Layer_1" />
<path
   fill="none"
   opacity="1"
   stroke="#000000"
   stroke-linecap="round"
   stroke-linejoin="round"
   stroke-width="2.02088"
   d="m 305.25207,42.356644 c -10.50552,1.381878 -21.00798,2.991937 -31.64144,3.000299 -10.75404,0.0085 -21.43326,1.939019 -32.19433,1.054482 -23.84799,-1.960247 -47.77852,0.0019 -71.59626,-1.24323 -11.50142,-0.601252 -22.98456,-0.08426 -34.42361,-0.877384 -6.33896,-0.439516 -12.6405,-1.730526 -18.87004,-3.003958 -8.07528,-1.650725 -16.30084,-1.478677 -24.444434,-1.856736 -9.656824,-0.44831 -18.838257,-3.1722 -28.321194,-4.044837 -5.825548,-0.53608 -11.921011,0.0275 -17.720071,0.988282 -6.404301,1.061063 -12.517434,0.651601 -18.92176,0.07657 C 18.375812,35.665101 9.3663803,35.539554 1.0508297,39.299477"
   id="path1" />
<path
   fill="none"
   opacity="1"
   stroke="#000000"
   stroke-linecap="round"
   stroke-linejoin="round"
   stroke-width="2"
   d="m 306.33301,96.181555 c -15.09231,0.982581 -30.21035,0.18013 -45.30122,0.686821 -21.13535,0.70967 -42.22258,-1.376383 -63.16369,-3.087294 -21.69212,-1.772282 -43.31488,-0.668143 -64.90852,-2.047674 -11.93096,-0.762242 -23.83325,-3.201913 -35.793064,-2.090603 -8.031598,0.746313 -16.032251,0.901475 -24.061424,1.10179 -6.384783,0.159286 -12.593727,-1.674596 -19.021505,-1.36728 -7.980999,0.381576 -15.792046,1.503837 -23.489502,3.747606 -0.347912,0.101421 -0.74636,0.05118 -1.114843,0.0074 -9.650383,-1.145546 -18.967134,2.31828 -28.52494464,2.44047"
   id="path2" />
</svg> -->
<svg viewBox="0 0 100 96" xmlns="http://www.w3.org/2000/svg">
  <line x1="0" y1="30" x2="100" y2="30" stroke="#000" stroke-width="2"/>
  <line x1="0" y1="60" x2="100" y2="60" stroke="#000" stroke-width="2"/>
</svg>