<?xml version="1.0" encoding="UTF-8" standalone="no"?>
<svg
   version="1.1"
   id="Layer_1"
   x="0px"
   y="0px"
   width="138"
   viewBox="0 0 138 306"
   enable-background="new 0 0 306 138"
   xml:space="preserve"
   sodipodi:docname="body-ver.svg"
   inkscape:export-filename="body-hor.png"
   inkscape:export-xdpi="96"
   inkscape:export-ydpi="96"
   height="306"
   inkscape:version="1.4 (86a8ad7, 2024-10-11)"
   xmlns:inkscape="http://www.inkscape.org/namespaces/inkscape"
   xmlns:sodipodi="http://sodipodi.sourceforge.net/DTD/sodipodi-0.dtd"
   xmlns="http://www.w3.org/2000/svg"
   xmlns:svg="http://www.w3.org/2000/svg"><defs
   id="defs2" /><sodipodi:namedview
   id="namedview2"
   pagecolor="#ffffff"
   bordercolor="#000000"
   borderopacity="0.25"
   inkscape:showpageshadow="2"
   inkscape:pageopacity="0.0"
   inkscape:pagecheckerboard="0"
   inkscape:deskcolor="#d1d1d1"
   inkscape:zoom="4.1502084"
   inkscape:cx="110.83781"
   inkscape:cy="19.155665"
   inkscape:window-width="1920"
   inkscape:window-height="1129"
   inkscape:window-x="-8"
   inkscape:window-y="-8"
   inkscape:window-maximized="1"
   inkscape:current-layer="Layer_1" />
<path
   fill="none"
   opacity="1"
   stroke="#000000"
   stroke-linecap="round"
   stroke-linejoin="round"
   stroke-width="2.0251"
   d="m 98.840238,305.31402 c -1.615897,-10.52156 -3.459729,-21.03492 -3.706073,-31.71589 -0.249192,-10.80211 -2.417175,-21.48581 -1.7742,-32.31505 1.424923,-23.9991 -1.071258,-47.99286 -0.360201,-71.94548 0.34335,-11.56655 -0.430242,-23.08958 0.106221,-34.59779 0.297296,-6.3773 1.446232,-12.73616 2.579216,-19.0223 1.468659,-8.14865 1.112645,-16.40725 1.308137,-24.595889 C 97.22515,81.411382 99.741361,72.127467 100.40105,62.582347 100.80632,56.7186 100.10676,50.608469 99.016961,44.805008 97.813415,38.395846 98.085725,32.246072 98.516957,25.800072 99.105672,17.000062 99.029474,7.9473826 95.086451,-0.3208796"
   id="path1" />
<path
   fill="none"
   opacity="1"
   stroke="#000000"
   stroke-linecap="round"
   stroke-linejoin="round"
   stroke-width="2"
   d="m 45.054214,306.15644 c -1.32031,-15.06652 -0.85661,-30.19874 -1.70112,-45.27448 -1.18279,-21.11415 0.43051,-42.24281 1.67204,-63.21698 1.28607,-21.72637 -0.30202,-43.31898 0.5936,-64.9381 0.49487,-11.94504 2.66739,-23.89898 1.28854,-35.830904 -0.92599,-8.012871 -1.26028,-16.008043 -1.64035,-24.030717 -0.30222,-6.379615 1.39216,-12.628069 0.94097,-19.047353 -0.5602,-7.970453 -1.8571,-15.754409 -4.27268,-23.399688 -0.10919,-0.345554 -0.0679,-0.745027 -0.0324,-1.114398 0.92915,-9.673616 -2.74244,-18.910462 -3.07864,-28.46313969"
   id="path2" />
</svg>
