<?xml version="1.0" encoding="UTF-8" standalone="no"?>
<svg
   version="1.1"
   id="Layer_1"
   x="0px"
   y="0px"
   width="100%"
   viewBox="0 0 175 168"
   enable-background="new 0 0 175 168"
   xml:space="preserve"
   sodipodi:docname="head.svg"
   inkscape:version="1.4 (86a8ad7, 2024-10-11)"
   inkscape:export-filename="head.png"
   inkscape:export-xdpi="96"
   inkscape:export-ydpi="96"
   xmlns:inkscape="http://www.inkscape.org/namespaces/inkscape"
   xmlns:sodipodi="http://sodipodi.sourceforge.net/DTD/sodipodi-0.dtd"
   xmlns="http://www.w3.org/2000/svg"
   xmlns:svg="http://www.w3.org/2000/svg"><defs
   id="defs7"><inkscape:path-effect
     effect="bspline"
     id="path-effect13"
     is_visible="true"
     lpeversion="1.3"
     weight="33.333333"
     steps="2"
     helper_size="0"
     apply_no_weight="true"
     apply_with_weight="true"
     only_selected="false"
     uniform="false" /><inkscape:path-effect
     effect="bspline"
     id="path-effect12"
     is_visible="true"
     lpeversion="1.3"
     weight="33.333333"
     steps="2"
     helper_size="0"
     apply_no_weight="true"
     apply_with_weight="true"
     only_selected="false"
     uniform="false" /><inkscape:path-effect
     effect="bspline"
     id="path-effect11"
     is_visible="true"
     lpeversion="1.3"
     weight="33.333333"
     steps="2"
     helper_size="0"
     apply_no_weight="true"
     apply_with_weight="true"
     only_selected="false"
     uniform="false" /></defs><sodipodi:namedview
   id="namedview7"
   pagecolor="#ffffff"
   bordercolor="#000000"
   borderopacity="0.25"
   inkscape:showpageshadow="2"
   inkscape:pageopacity="0.0"
   inkscape:pagecheckerboard="0"
   inkscape:deskcolor="#d1d1d1"
   inkscape:zoom="5.2678571"
   inkscape:cx="87.416949"
   inkscape:cy="84"
   inkscape:window-width="1920"
   inkscape:window-height="1129"
   inkscape:window-x="-8"
   inkscape:window-y="-8"
   inkscape:window-maximized="1"
   inkscape:current-layer="Layer_1" />
<path
   fill="none"
   opacity="1"
   stroke="#000000"
   stroke-linecap="round"
   stroke-linejoin="round"
   stroke-width="2"
   d="m 103.5,63.5 c -3.867188,8.833336 -3.826134,17.504776 -0.15143,26.56144 2.16268,5.330162 2.6322,11.32397 4.2012,16.92461 1.73532,6.19426 5.93211,10.71711 10.96519,14.49401 1.1357,0.85224 2.5004,1.23668 3.98601,1.02681 3.85451,-0.54452 5.33598,1.72453 4.90935,4.98138 -0.53625,4.09357 2.21354,7.93715 0.70001,12.095 -3.87672,0.16745 -7.29191,1.14347 -10.16709,3.8566 -1.02421,0.96649 -0.61168,1.85225 -0.36402,2.53125 0.37898,1.03896 1.92722,0.79306 2.36087,0.45259 1.70105,-1.33546 3.61015,-1.23636 5.55599,-1.45811 7.83963,-0.89348 6.26373,-1.85877 7.65001,-8.43479 0.84836,-4.02427 -1.158,-8.28229 1.35391,-12.03079"
   id="path1" />
<path
   fill="none"
   opacity="1"
   stroke="#000000"
   stroke-linecap="round"
   stroke-linejoin="round"
   stroke-width="2"
   d="m 114.5,27.5 c -2.13013,-1.755804 -4.01361,-2.349846 -7.05801,-1.146776 -8.433132,3.332577 -16.484543,6.891504 -23.015301,13.57514 C 77.488579,47.028885 69.202484,52.281921 59.5,55"
   id="path2" />
<path
   fill="none"
   opacity="1"
   stroke="#000000"
   stroke-linecap="round"
   stroke-linejoin="round"
   stroke-width="2"
   d="m 59.5,60 c 0.166666,0.166668 0.344475,0.323689 0.498327,0.50145 2.249621,2.599136 2.734808,6.993583 6.527075,7.891235 5.379181,1.273285 10.925102,1.757774 16.476852,0.618301 C 89.028343,67.774147 95.049095,66.562889 100.52421,63.5439 100.83716,63.371338 101.5,63.833332 102,63.999996"
   id="path3" />
<path
   fill="none"
   opacity="1"
   stroke="#000000"
   stroke-linecap="round"
   stroke-linejoin="round"
   stroke-width="2"
   d="m 140.5,52.5 c 9.22318,10.775368 21.44237,14.060753 35,14"
   id="path4" />
<path
   fill="none"
   opacity="1"
   stroke="#000000"
   stroke-linecap="round"
   stroke-linejoin="round"
   stroke-width="2"
   d="m 181.5,121 c -6.70206,3.08564 -13.64938,4.10604 -21.01038,3.07406 -3.68784,-0.51702 -7.18848,1.91208 -11.86573,0.53705 2.18955,5.51087 -0.0904,9.84743 -0.27139,14.383 -0.20991,5.2607 -5.01733,5.25864 -9.04196,6.04283 -2.62428,-4.36049 2.22477,-4.85261 3.70842,-7.21635 -1.05457,-4.45623 -0.22801,-9.15836 -0.63838,-14.32059 -1.86683,0 -3.87371,0 -5.88058,0"
   id="path5" />
<path
   fill="none"
   opacity="1"
   stroke="#000000"
   stroke-linecap="round"
   stroke-linejoin="round"
   stroke-width="2.56237"
   d="m 56.807627,53.875896 c 1.230165,1.344871 -1.862958,2.567231 -1.691292,3.882106"
   id="path6" />
<path
   fill="none"
   opacity="1"
   stroke="#000000"
   stroke-linecap="round"
   stroke-linejoin="round"
   stroke-width="2"
   d="m 123,27 c -8.966,2.120142 -11.46161,9.699287 -13.32428,17.044559 -1.68483,6.64391 -2.30437,13.653355 -2.92548,20.478215 -0.6427,7.062187 -0.10837,14.405555 6.65259,19.603615 2.9134,2.239921 5.05792,1.342643 7.04469,-0.194222 7.3906,-5.716919 11.45903,-13.649528 14.04021,-22.435772 0.89273,-3.038807 1.29529,-6.18544 2.95905,-9.027553 1.82796,-3.122616 1.38978,-6.472867 -0.48323,-9.445874 -2.32017,-3.682773 -2.4993,-8.22142 -5.77696,-11.698841 C 128.85375,28.849112 126.59682,27.505308 123.5,27"
   id="path7" />
<circle
   style="fill:#000000;fill-opacity:1;stroke-width:6.32693"
   id="path9"
   cx="98.806778"
   cy="40.718643"
   r="1.6135594" /><path
   sodipodi:type="spiral"
   style="fill:none;fill-rule:evenodd;stroke:#000000"
   id="path10"
   sodipodi:cx="54.101696"
   sodipodi:cy="55.240677"
   sodipodi:expansion="1"
   sodipodi:revolution="3"
   sodipodi:radius="3.0902169"
   sodipodi:argument="-17.464108"
   sodipodi:t0="0"
   d="m 54.101696,55.240677 c 0.02855,0.152285 -0.19119,0.113621 -0.253107,0.04746 -0.167794,-0.1793 -0.02621,-0.454483 0.158192,-0.553673 0.329844,-0.177428 0.720542,0.04267 0.854237,0.363842 0.196203,0.471336 -0.111236,0.991059 -0.569492,1.154802 -0.610782,0.218244 -1.263269,-0.179533 -1.455367,-0.775141 -0.241735,-0.749511 0.247663,-1.536314 0.980791,-1.755932 0.887917,-0.265987 1.809834,0.315689 2.056497,1.186441 0.290684,1.02615 -0.38365,2.083651 -1.39209,2.357062 -1.164284,0.315664 -2.357666,-0.451568 -2.657627,-1.597741 -0.340835,-1.302353 0.519455,-2.63182 1.80339,-2.958192 1.440381,-0.366139 2.906076,0.587321 3.258757,2.00904 0.391542,1.578378 -0.65517,3.180408 -2.21469,3.559322"
   transform="translate(0.94915254,0.18983051)" /><path
   style="fill:#000000;fill-opacity:1;stroke-width:10;stroke-dasharray:none"
   d="m 161.35593,18.60339 c 0,0 -136.298303,20.311864 -136.298303,20.311864"
   id="path12"
   inkscape:path-effect="#path-effect12"
   inkscape:original-d="M 161.35593,18.60339 25.057627,38.915254" /></svg>
