<?xml version="1.0" encoding="UTF-8" standalone="no"?>
<svg
   version="1.1"
   id="Layer_1"
   x="0px"
   y="0px"
   width="100%"
   viewBox="0 0 181 199"
   enable-background="new 0 0 181 199"
   xml:space="preserve"
   sodipodi:docname="knot.svg"
   inkscape:export-filename="knot.png"
   inkscape:export-xdpi="96"
   inkscape:export-ydpi="96"
   inkscape:version="1.4 (86a8ad7, 2024-10-11)"
   xmlns:inkscape="http://www.inkscape.org/namespaces/inkscape"
   xmlns:sodipodi="http://sodipodi.sourceforge.net/DTD/sodipodi-0.dtd"
   xmlns:xlink="http://www.w3.org/1999/xlink"
   xmlns="http://www.w3.org/2000/svg"
   xmlns:svg="http://www.w3.org/2000/svg"><defs
   id="defs9" /><sodipodi:namedview
   id="namedview9"
   pagecolor="#ffffff"
   bordercolor="#000000"
   borderopacity="0.25"
   inkscape:showpageshadow="2"
   inkscape:pageopacity="0.0"
   inkscape:pagecheckerboard="0"
   inkscape:deskcolor="#d1d1d1"
   inkscape:zoom="1.5723354"
   inkscape:cx="-210.83288"
   inkscape:cy="235.00075"
   inkscape:window-width="1920"
   inkscape:window-height="1129"
   inkscape:window-x="-8"
   inkscape:window-y="-8"
   inkscape:window-maximized="1"
   inkscape:current-layer="Layer_1" />
<path
   fill="none"
   opacity="1"
   stroke="#000000"
   stroke-linecap="round"
   stroke-linejoin="round"
   stroke-width="2.15965"
   d="m 124.34894,86.651253 c -3.56352,10.978933 -12.28101,17.489627 -20.82093,24.301197 -12.107238,9.6569 -26.376551,13.50283 -41.186071,16.11031 -18.595,3.27401 -37.419123,3.57394 -56.2130513,3.80849 -1.9092633,0.0239 -3.8603013,0.88028 -5.79195176,0.23886"
   id="path1" />
<path
   fill="none"
   opacity="1"
   stroke="#000000"
   stroke-linecap="round"
   stroke-linejoin="round"
   stroke-width="2"
   d="m 29.875706,88.074011 c 2.402267,-12.569878 1.365276,-25.663025 5.137333,-37.957867 2.658043,-8.663776 7.008636,-16.604814 14.82761,-22.092088 2.883854,-2.023859 5.105667,-5.046168 8.084812,-6.868712 8.592533,-5.256623 17.652561,-7.302028 27.999394,-5.340617 6.841835,1.296979 13.478179,2.759801 19.964715,5.222772 4.73274,1.797044 8.424,4.602651 11.01646,9.018715 4.09651,6.978151 9.4829,13.121923 13.09372,20.456731 0.93348,1.896218 1.29267,3.582104 1.40055,5.559723 0.5569,10.209534 -0.27415,20.110626 -6.02459,29.001343"
   id="path2" />
<path
   fill="none"
   opacity="1.000000"
   stroke="#000000"
   stroke-linecap="round"
   stroke-linejoin="round"
   stroke-width="2.000000"
   d=" M51.500000,84.500000   C67.777634,86.221573 82.241402,79.724091 97.008736,74.524811   C103.977547,72.071220 106.064362,66.360336 106.379730,59.994041   C106.703217,53.463749 105.124924,47.565849 98.538429,43.930382   C89.043510,38.689590 80.200531,39.480843 72.511032,47.011269   C66.474319,52.923100 60.165539,58.612259 56.479198,66.490265   C54.314602,71.116180 52.426998,75.797493 52.543438,80.999031   C52.573238,82.330345 51.582470,82.716148 51.000000,83.500000  "
   id="path3" />
<path
   fill="none"
   opacity="1"
   stroke="#000000"
   stroke-linecap="round"
   stroke-linejoin="round"
   stroke-width="2.9352"
   d="m 55.03597,130.83679 c 2.687497,19.86464 10.513597,38.19177 11.572813,58.51982 0.135269,2.5961 4.043299,3.83219 1.54573,7.11502"
   id="path4" />
<path
   fill="none"
   opacity="1"
   stroke="#000000"
   stroke-linecap="round"
   stroke-linejoin="round"
   stroke-width="2.54409"
   d="M 32.102881,81.509934 C 29.382626,79.367163 26.130786,79.036199 22.72475,78.821891 15.344226,78.357522 7.8151122,78.588481 0.89994348,75.395152"
   id="path5" />
<path
   fill="none"
   opacity="1.000000"
   stroke="#000000"
   stroke-linecap="round"
   stroke-linejoin="round"
   stroke-width="2.000000"
   d=" M33.000000,82.500000   C36.566288,82.535995 40.085918,82.343513 43.540298,83.911201   C45.880020,84.973007 48.612053,85.347488 51.000000,83.500000  "
   id="path6" />
<path
   fill="none"
   opacity="1"
   stroke="#000000"
   stroke-linecap="round"
   stroke-linejoin="round"
   stroke-width="2.87706"
   d="m 28.666347,131.31507 c -2.271624,11.94693 -4.543251,23.89389 -6.814876,35.84082"
   id="path7" />
<path
   fill="none"
   opacity="1"
   stroke="#000000"
   stroke-linecap="round"
   stroke-linejoin="round"
   stroke-width="2.96299"
   d="m 21.422136,168.25878 c -1.6805,7.31876 -3.56643,14.45961 -4.943359,22.04129 -0.574417,3.16285 -1.989474,9.52816 0.801725,9.89537 0.143975,0.0207 0.389469,-0.68651 0.534272,-1.16316 0.09115,-0.30005 0.08265,-0.80243 0.118856,-1.21406"
   id="path8" />

<image
   width="306"
   height="138"
   preserveAspectRatio="none"
   xlink:href="body-hor.png"
   id="image1"
   x="198.78929"
   y="-108.40952"
   transform="rotate(89.295279)" /></svg>
