<?xml version="1.0" encoding="UTF-8" standalone="no"?>
<svg
   version="1.1"
   id="Layer_1"
   x="0px"
   y="0px"
   width="100%"
   viewBox="0 0 160 176"
   enable-background="new 0 0 160 176"
   xml:space="preserve"
   sodipodi:docname="tail.svg"
   inkscape:export-filename="tail.png"
   inkscape:export-xdpi="96"
   inkscape:export-ydpi="96"
   inkscape:version="1.4 (86a8ad7, 2024-10-11)"
   xmlns:inkscape="http://www.inkscape.org/namespaces/inkscape"
   xmlns:sodipodi="http://sodipodi.sourceforge.net/DTD/sodipodi-0.dtd"
   xmlns="http://www.w3.org/2000/svg"
   xmlns:svg="http://www.w3.org/2000/svg"><defs
   id="defs1" /><sodipodi:namedview
   id="namedview1"
   pagecolor="#ffffff"
   bordercolor="#000000"
   borderopacity="0.25"
   inkscape:showpageshadow="2"
   inkscape:pageopacity="0.0"
   inkscape:pagecheckerboard="0"
   inkscape:deskcolor="#d1d1d1"
   inkscape:zoom="5.0284091"
   inkscape:cx="80.045198"
   inkscape:cy="88"
   inkscape:window-width="1920"
   inkscape:window-height="1129"
   inkscape:window-x="-8"
   inkscape:window-y="-8"
   inkscape:window-maximized="1"
   inkscape:current-layer="Layer_1" />
<path
   fill="#000000"
   opacity="1"
   stroke="none"
   d="m 62.201061,135.94816 c 0.23175,-4.83382 -0.784295,-8.99239 -3.00206,-13.05613 -2.416665,3.72468 -2.434151,7.99688 -3.130516,12.00759 -0.621407,3.57901 -2.201447,6.1814 -5.211838,8.06891 -2.367676,1.48456 -4.642815,0.9145 -6.405655,-0.75875 -2.082527,-1.97668 -0.337898,-3.85406 1.139938,-5.05998 3.848725,-3.14061 3.072212,-7.9147 4.305474,-11.89821 0.765487,-2.4726 -1.660469,-4.41392 -4.36245,-4.17943 -13.564331,1.1772 -26.723801,-2.6238 -40.1457982,-3.08724 -0.994022,-0.0343 -2.011123,-0.0602 -2.96965,-0.28978 -1.111443,-0.2662 -2.31577699,-0.57645 -2.74443399,-1.86839 -0.304314,-0.9172 0.189952,-1.63319 0.844635,-2.1739 1.30492399,-1.07775 1.98108199,0.55127 2.89459899,0.70827 4.702893,0.8082 9.5186392,0.99754 14.1954162,1.91211 10.186371,1.99202 20.446518,2.3158 30.754951,1.89799 3.917832,-0.15878 3.113427,3.74296 4.842919,5.33393 1.437981,0.0665 1.838676,-0.88059 2.006836,-1.8784 0.36145,-2.14475 1.866051,-2.5684 3.659981,-2.56534 2.17588,0.004 4.383529,0.74139 4.644798,2.97552 0.822418,7.03266 3.871956,14.27971 -1.348717,21.00415 4.306961,-1.10014 7.932091,-8.09382 6.654892,-13.48881 -0.59391,-2.50872 -0.700012,-4.94712 -0.517174,-7.40892 0.251259,-3.3831 1.769341,-5.69766 5.321015,-6.98297 9.837524,-3.56011 16.495414,-10.18945 19.110237,-20.662838 0.759476,-3.041938 -0.106339,-5.921074 0.0015,-8.864456 0.13475,-3.678505 1.51506,-6.202423 3.581116,-8.881943 6.699474,-8.688713 5.425584,-24.314239 -2.391999,-32.086528 -1.64003,-1.630543 -3.17691,-2.318142 -5.239212,-0.869011 -2.257599,1.586368 -1.391861,3.370247 -0.492057,5.264366 1.854255,3.903267 5.312736,6.731907 6.778495,10.988014 1.376877,3.99799 0.615738,7.219143 -1.934707,10.168247 -1.843964,2.132195 -3.983658,4.01194 -6.026261,5.967942 -1.559112,1.493003 -3.213012,1.834426 -5.455902,1.200912 -11.023292,-3.113617 -22.069916,-6.767479 -33.635437,-6.403198 -9.806259,0.308876 -19.530075,-1.151131 -29.35944,-0.37674 -6.237445,0.491417 -12.5620082,-0.09448 -18.77350619,1.246651 -1.06866401,0.230743 -2.37633901,0.454918 -3.15195801,-1.643906 4.06251101,-1.810836 8.442154,-2.596908 12.718559,-2.603416 13.7584232,-0.02093 27.5167852,0.50061 41.2766492,0.594185 6.743813,0.04586 13.247452,1.480758 19.567666,3.381798 4.141304,1.245658 8.42173,1.800003 12.562667,2.666427 4.045212,0.846405 5.853562,-4.162819 8.453446,-6.716392 2.608948,-2.562493 1.923584,-5.839253 0.02707,-8.71418 -1.829392,-2.773175 -4.030495,-5.286225 -5.431274,-8.358494 -1.668549,-3.659546 -2.266671,-6.991512 1.689933,-9.654411 4.2071,-2.831486 7.10418,-0.411278 9.267449,2.703628 5.584224,8.040749 7.861264,17.093704 7.209094,26.87154 -0.14305,2.14447 -1.37603,3.662674 -2.80085,5.12703 -4.266322,4.384697 -5.521251,9.411834 -5.577052,15.720817 -0.100235,11.328216 -6.212509,19.592876 -16.481217,24.757896 -8.260513,4.15492 -7.890701,4.2816 -7.375068,13.89674 0.264198,4.92667 -0.52607,10.05054 -4.024918,14.03727 -1.654205,1.88487 -3.851829,3.34527 -6.609291,2.76933 -1.405327,-0.29353 -3.05825,-0.53563 -3.645386,-2.22252 -0.57946,-1.66478 0.269791,-2.89511 1.452576,-3.94482 1.346207,-1.19477 3.117676,-2.05074 3.281937,-4.57216 m -14.277512,3.27133 c -0.06904,0.14905 -0.16288,0.29222 -0.200089,0.44882 -0.0369,0.15535 -0.03024,0.46616 -0.01974,0.46716 2.906594,0.27591 4.573502,-1.61877 5.164246,-3.9085 0.751182,-2.91153 0.717758,-6.02552 1.022606,-9.0522 -2.449158,3.68409 -1.338845,8.87909 -5.967026,12.04472 z"
   id="path1" />
</svg>
